<?xml version="1.0" encoding="UTF-8"?>
<svg id="Layer_2"
    xmlns="http://www.w3.org/2000/svg" viewBox="0 0 210.77 96.86">
    <defs>
        <style>.cls-1{fill:#6a3fb9;}.cls-2{fill:#2e2046;}</style>
    </defs>
    <g id="Layer_1-2">
        <g>
            <path class="cls-2" d="M209.31,19.87c-4.26,4.2-8.52,8.39-12.79,12.59-1.79,1.75-4.08,1.84-5.66,.25-1.49-1.51-1.4-3.75,.23-5.42h-9.11l-10.72,61.5h0c-.15,.68-1.07,.76-1.34,.14l-15.13-35.17c-.57-1.32-.74-2.78-.51-4.2l3.95-22.27h-19.87c-.74,0-1.42-.3-2.01-.9-.59-.59-.89-1.36-.89-2.3v-6.52c0-1.62,.28-3.11,.84-4.48,.56-1.36,1.3-2.54,2.24-3.52,.93-.98,1.98-1.73,3.13-2.24,1.15-.51,2.33-.76,3.52-.76h45.94c-1.66-1.69-1.75-3.95-.25-5.44,1.57-1.56,3.9-1.48,5.66,.25,4.27,4.18,8.54,8.38,12.79,12.58,1.95,1.92,1.94,4,0,5.92"/>
            <path class="cls-1" d="M72.46,6.56c1.03,0,1.82,.3,2.33,.9,.61,.59,.91,1.36,.91,2.3v11.38c0,1.88-.7,3.28-2.08,4.22-3.2,2.9-6.09,5.54-8.69,7.93-1.56,1.36-2.79,2.48-3.7,3.33-.9,.85-1.77,1.64-2.6,2.36-.82,.73-1.51,1.34-2.07,1.85-.56,.51-.89,.81-.97,.9-.26,.26-.32,.49-.19,.7l2.77,.44c7.09,1.45,12.54,4.57,16.56,8.58,4.02,4.01,6.03,9.72,6.03,17.14,0,5.2-1.17,9.59-3.5,13.18-2.33,3.58-5.36,6.5-9.08,8.76-3.72,2.26-7.84,3.88-12.39,4.86-4.54,.98-9.01,1.47-13.42,1.47-3.03,0-6.14-.22-9.34-.64-3.2-.43-6.33-1.15-9.4-2.17-3.07-1.03-5.92-2.39-8.56-4.1-2.64-1.7-4.87-3.88-6.68-6.52-2.77-3.84-4.19-7.67-4.28-11.51,0-.76,.26-1.41,.78-1.92,.6-.51,1.3-.77,2.07-.77H24.74c1.03,0,1.86,.21,2.46,.64,.6,.43,1.17,1.03,1.69,1.79,1.64,4.18,6.14,6.27,13.49,6.27,3.54,0,6.66-.83,9.34-2.49,2.68-1.66,4.02-4.45,4.02-8.38,0-6.31-4.32-9.47-12.97-9.47h-14.4c-.86,0-1.64-.32-2.33-.96-.69-.64-1.03-1.42-1.03-2.37v-7.54c0-1.79,.74-3.24,2.2-4.35l19.33-15.61c.26-.17,.32-.4,.19-.7-.13-.3-.37-.45-.71-.45H17.97c.55,.53,1.09,1.07,1.63,1.61,1.71,1.69,1.82,3.99,.31,5.5-1.57,1.56-3.91,1.48-5.66-.25-4.27-4.19-8.54-8.38-12.79-12.58-1.95-1.92-1.94-4,0-5.92C5.72,9.77,9.98,5.57,14.25,1.38c1.78-1.75,4.08-1.84,5.66-.25,1.5,1.51,1.39,3.78-.26,5.45l52.82-.03Z"/>
            <path class="cls-2" d="M143.63,39.94c-.78-2.3-2.2-3.45-4.28-3.45h-9.73c-2.08,0-3.5,1.15-4.28,3.45l-8.04,14.97c0,.26-.22,.38-.65,.38-.35,0-.56-.17-.65-.51l-7.39-45.41c-.26-1.87-1.64-2.81-4.15-2.81h-16.86c-.78,0-1.43,.26-1.95,.77-.52,.6-.74,1.45-.65,2.56l13.75,81.6c.6,2.73,2.33,4.09,5.19,4.09h12.97c1.47,0,2.51-.34,3.11-1.02,.86-.68,1.43-1.41,1.69-2.17l12.19-25.15c.08-.34,.3-.51,.65-.51s.56,.17,.65,.51l12.19,25.15c.26,.85,.78,1.58,1.56,2.17,.6,.68,1.64,1.02,3.11,1.02h13.14c1.84,0,3.06-1.91,2.34-3.59l-17-37.6-6.91-14.46Z"/>
        </g>
    </g>
</svg>