<?xml version="1.0" encoding="UTF-8" standalone="no"?>
<!DOCTYPE svg PUBLIC "-//W3C//DTD SVG 20010904//EN"
              "http://www.w3.org/TR/2001/REC-SVG-20010904/DTD/svg10.dtd">

<svg xmlns="http://www.w3.org/2000/svg"
     width="13.2927mm" height="6.77335mm"
     viewBox="0 0 157 80">
  <path id="Selection"
        fill="white" stroke="white" stroke-width="1"
        d="M 18.20,23.77
           C 18.61,24.34 19.54,24.96 19.99,25.89
             20.80,27.61 19.70,29.68 17.73,29.72
             16.54,29.75 15.86,29.14 15.07,28.35
             15.07,28.35 14.17,27.45 14.17,27.45
             14.17,27.45 13.08,26.37 13.08,26.37
             13.08,26.37 12.56,25.89 12.56,25.89
             12.56,25.89 7.58,20.93 7.58,20.93
             6.67,20.02 5.27,18.90 5.31,17.48
             5.35,16.22 6.33,15.38 7.16,14.55
             7.16,14.55 11.90,9.83 11.90,9.83
             11.90,9.83 13.70,8.03 13.70,8.03
             13.70,8.03 14.55,7.23 14.55,7.23
             15.26,6.53 15.93,5.70 16.92,5.42
             17.26,5.33 17.48,5.34 17.82,5.34
             18.20,5.34 18.54,5.44 18.87,5.62
             19.16,5.79 19.29,5.90 19.53,6.14
             20.65,7.29 20.38,8.97 19.34,10.06
             19.34,10.06 50.06,10.06 50.06,10.06
             50.06,10.06 57.17,10.06 57.17,10.06
             58.57,10.07 59.35,11.10 59.35,12.43
             59.35,12.43 59.35,20.56 59.35,20.56
             59.35,21.22 59.20,22.01 58.85,22.59
             58.47,23.22 58.17,23.37 57.64,23.83
             57.64,23.83 56.36,25.01 56.36,25.01
             56.36,25.01 52.19,28.87 52.19,28.87
             52.19,28.87 49.87,30.96 49.87,30.96
             49.87,30.96 48.49,32.26 48.49,32.26
             48.49,32.26 45.79,34.70 45.79,34.70
             45.79,34.70 45.08,35.35 45.08,35.35
             45.00,35.44 44.86,35.60 44.84,35.72
             44.82,36.02 45.57,36.05 45.79,36.08
             47.19,36.32 47.69,36.41 49.06,36.80
             51.95,37.62 54.87,39.15 57.17,41.06
             58.24,41.95 59.13,42.82 59.96,43.95
             62.39,47.28 63.00,51.46 62.95,55.48
             62.95,55.48 62.90,56.33 62.90,56.33
             62.90,56.33 62.86,56.80 62.86,56.80
             62.78,57.90 62.57,59.18 62.27,60.25
             61.94,61.38 61.51,62.47 60.95,63.51
             60.46,64.41 59.85,65.26 59.21,66.06
             57.07,68.72 54.38,70.66 51.29,72.08
             50.21,72.57 49.11,73.03 47.97,73.38
             46.30,73.90 44.58,74.28 42.85,74.57
             41.37,74.82 39.85,75.02 38.35,75.09
             38.35,75.09 37.83,75.13 37.83,75.13
             37.83,75.13 37.31,75.13 37.31,75.13
             37.31,75.13 36.74,75.18 36.74,75.18
             36.74,75.18 34.18,75.18 34.18,75.18
             34.18,75.18 33.70,75.13 33.70,75.13
             33.70,75.13 33.18,75.13 33.18,75.13
             33.18,75.13 32.66,75.09 32.66,75.09
             32.66,75.09 29.15,74.76 29.15,74.76
             25.36,74.31 21.28,73.14 17.92,71.32
             16.39,70.49 14.98,69.56 13.70,68.37
             12.81,67.54 12.04,66.58 11.34,65.59
             9.98,63.64 8.84,61.48 8.44,59.11
             8.44,59.11 8.29,57.79 8.29,57.79
             8.29,57.79 8.25,57.32 8.25,57.32
             8.24,56.71 8.41,56.11 8.91,55.72
             9.07,55.60 9.30,55.47 9.48,55.40
             9.74,55.31 9.97,55.29 10.24,55.29
             10.24,55.29 23.18,55.29 23.18,55.29
             24.35,55.29 25.23,55.92 25.85,56.89
             25.85,56.89 26.57,58.22 26.57,58.22
             27.17,59.08 27.95,59.71 28.87,60.23
             29.90,60.81 31.39,61.18 32.57,61.35
             33.34,61.46 34.11,61.52 34.89,61.52
             34.89,61.52 35.60,61.57 35.60,61.57
             35.60,61.57 36.12,61.52 36.12,61.52
             37.66,61.52 39.37,61.13 40.77,60.50
             41.91,59.98 42.95,59.37 43.73,58.36
             44.56,57.28 45.08,55.65 45.08,54.29
             45.08,54.29 45.08,53.11 45.08,53.11
             45.07,52.58 44.89,51.73 44.72,51.22
             44.57,50.80 44.28,50.22 44.02,49.85
             42.75,48.09 40.79,47.40 38.73,47.06
             38.22,46.98 37.34,46.88 36.83,46.88
             36.83,46.88 34.46,46.88 34.46,46.88
             34.46,46.88 32.38,46.88 32.38,46.88
             32.38,46.88 29.39,46.88 29.39,46.88
             29.39,46.88 26.64,46.88 26.64,46.88
             26.11,46.88 25.39,46.90 24.89,46.76
             23.89,46.48 23.18,45.60 23.18,44.56
             23.18,44.56 23.18,38.75 23.18,38.75
             23.18,37.84 23.59,36.94 24.23,36.29
             24.23,36.29 26.02,34.81 26.02,34.81
             26.02,34.81 34.18,28.15 34.18,28.15
             34.18,28.15 37.26,25.63 37.26,25.63
             37.26,25.63 38.21,24.86 38.21,24.86
             38.34,24.75 38.57,24.57 38.65,24.43
             38.70,24.33 38.70,24.25 38.65,24.15
             38.50,23.80 38.16,23.77 37.83,23.77
             37.83,23.77 18.20,23.77 18.20,23.77 Z
           M 138.04,10.06
           C 137.52,9.46 137.14,8.85 137.14,8.03
             137.14,8.03 137.14,7.70 137.14,7.70
             137.15,6.48 138.34,5.35 139.56,5.34
             139.56,5.34 139.93,5.34 139.93,5.34
             141.16,5.35 142.03,6.39 142.83,7.18
             142.83,7.18 145.48,9.83 145.48,9.83
             145.48,9.83 150.32,14.65 150.32,14.65
             151.17,15.50 152.10,16.26 152.07,17.58
             152.05,18.61 151.38,19.30 150.70,19.99
             150.70,19.99 149.75,20.93 149.75,20.93
             149.75,20.93 143.30,27.36 143.30,27.36
             143.30,27.36 142.35,28.30 142.35,28.30
             141.62,29.03 140.98,29.64 139.89,29.72
             138.51,29.81 137.15,28.66 137.14,27.27
             137.13,26.25 137.35,25.78 137.99,25.00
             137.99,25.00 131.50,25.00 131.50,25.00
             131.50,25.00 131.24,26.60 131.24,26.60
             131.24,26.60 130.90,28.59 130.90,28.59
             130.90,28.59 129.61,36.05 129.61,36.05
             129.61,36.05 127.31,49.43 127.31,49.43
             127.31,49.43 125.60,59.35 125.60,59.35
             125.60,59.35 124.22,67.38 124.22,67.38
             124.22,67.38 124.00,68.66 124.00,68.66
             124.00,68.66 123.85,69.42 123.85,69.42
             123.76,69.67 123.56,69.77 123.30,69.74
             122.95,69.71 122.88,69.40 122.77,69.13
             122.77,69.13 122.00,67.34 122.00,67.34
             122.00,67.34 118.68,59.54 118.68,59.54
             118.68,59.54 113.80,48.06 113.80,48.06
             113.80,48.06 112.62,45.27 112.62,45.27
             112.11,44.09 111.67,43.20 111.68,41.87
             111.69,41.37 111.90,40.27 111.99,39.74
             111.99,39.74 112.52,36.72 112.52,36.72
             112.52,36.72 113.97,28.45 113.97,28.45
             113.97,28.45 114.57,25.00 114.57,25.00
             114.57,25.00 105.19,25.00 105.19,25.00
             105.19,25.00 100.45,25.00 100.45,25.00
             99.07,24.98 98.32,23.87 98.31,22.59
             98.31,22.59 98.31,19.14 98.31,19.14
             98.31,18.09 98.30,17.10 98.51,16.07
             98.76,14.92 99.24,13.85 99.93,12.90
             100.23,12.48 100.57,12.08 100.97,11.75
             101.54,11.26 101.91,11.00 102.58,10.67
             103.28,10.33 104.22,10.07 105.00,10.06
             105.00,10.06 138.04,10.06 138.04,10.06 Z
           M 63.76,10.07
           C 63.76,10.07 65.27,10.07 65.27,10.07
             65.27,10.07 68.07,10.07 68.07,10.07
             68.07,10.07 76.51,10.07 76.51,10.07
             77.26,10.07 78.21,10.31 78.69,10.92
             79.12,11.45 79.17,12.15 79.27,12.81
             79.27,12.81 79.73,15.64 79.73,15.64
             79.73,15.64 82.72,34.16 82.72,34.16
             82.72,34.16 83.64,39.93 83.64,39.93
             83.64,39.93 84.04,42.39 84.04,42.39
             84.04,42.39 84.36,44.37 84.36,44.37
             84.41,44.66 84.42,45.00 84.71,45.15
             85.19,45.40 85.39,44.88 85.55,44.56
             85.55,44.56 86.28,43.19 86.28,43.19
             86.28,43.19 87.01,41.82 87.01,41.82
             87.01,41.82 88.66,38.70 88.66,38.70
             88.66,38.70 90.95,34.40 90.95,34.40
             90.95,34.40 91.46,33.27 91.46,33.27
             91.98,32.34 92.81,31.67 93.91,31.66
             93.91,31.66 101.25,31.66 101.25,31.66
             102.38,31.66 103.18,32.22 103.74,33.17
             103.74,33.17 104.40,34.64 104.40,34.64
             104.40,34.64 105.08,36.05 105.08,36.05
             105.08,36.05 106.20,38.42 106.20,38.42
             106.20,38.42 107.57,41.35 107.57,41.35
             107.57,41.35 109.01,44.37 109.01,44.37
             109.01,44.37 110.87,48.53 110.87,48.53
             110.87,48.53 113.73,54.91 113.73,54.91
             113.73,54.91 116.46,61.00 116.46,61.00
             116.46,61.00 119.90,68.71 119.90,68.71
             119.90,68.71 120.85,70.83 120.85,70.83
             121.11,71.43 121.36,71.82 121.35,72.49
             121.34,73.67 120.41,74.28 119.31,74.28
             119.31,74.28 110.21,74.28 110.21,74.28
             109.73,74.28 108.99,74.19 108.55,73.98
             108.28,73.86 108.16,73.73 107.94,73.55
             107.11,72.84 107.17,72.66 106.74,71.78
             106.74,71.78 106.00,70.22 106.00,70.22
             106.00,70.22 105.11,68.38 105.11,68.38
             105.11,68.38 103.59,65.21 103.59,65.21
             103.59,65.21 100.51,58.78 100.51,58.78
             100.51,58.78 98.52,54.62 98.52,54.62
             98.52,54.62 98.31,54.20 98.31,54.20
             98.19,53.92 98.01,53.38 97.60,53.47
             97.25,53.54 96.97,54.35 96.81,54.67
             96.81,54.67 96.00,56.37 96.00,56.37
             96.00,56.37 94.98,58.50 94.98,58.50
             94.98,58.50 93.56,61.43 93.56,61.43
             93.56,61.43 90.77,67.29 90.77,67.29
             90.77,67.29 89.75,69.42 89.75,69.42
             89.75,69.42 89.35,70.22 89.35,70.22
             89.35,70.22 88.85,71.26 88.85,71.26
             88.65,71.68 88.38,72.36 88.12,72.72
             87.96,72.95 87.63,73.27 87.42,73.46
             87.18,73.68 86.99,73.85 86.70,73.98
             86.27,74.19 85.52,74.28 85.04,74.28
             85.04,74.28 75.99,74.28 75.99,74.28
             75.65,74.28 74.93,74.22 74.61,74.13
             74.28,74.05 73.96,73.92 73.66,73.74
             72.13,72.83 72.06,70.89 71.80,69.32
             71.80,69.32 70.94,64.22 70.94,64.22
             70.94,64.22 65.33,30.53 65.33,30.53
             65.33,30.53 62.74,15.03 62.74,15.03
             62.74,15.03 62.59,14.13 62.59,14.13
             62.39,12.93 61.84,11.02 63.19,10.28
             63.38,10.17 63.54,10.13 63.76,10.07 Z
           M 221.90,110.29" />
</svg>
