<?xml version="1.0" encoding="UTF-8" standalone="no"?>
<!DOCTYPE svg PUBLIC "-//W3C//DTD SVG 20010904//EN"
              "http://www.w3.org/TR/2001/REC-SVG-20010904/DTD/svg10.dtd">

<svg xmlns="http://www.w3.org/2000/svg"
     width="100%" height="100%"
     viewBox="0 0 3611 2147">
  <path id="Selection"
        fill="white" stroke="white" stroke-width="1"
        d="M 549.00,709.00
           C 557.62,721.04 577.30,734.20 586.68,754.00
             603.89,790.33 580.61,834.04 539.00,834.99
             513.94,835.55 499.60,822.60 483.00,806.00
             483.00,806.00 464.00,787.00 464.00,787.00
             464.00,787.00 441.00,764.04 441.00,764.04
             441.00,764.04 430.00,754.00 430.00,754.00
             430.00,754.00 325.00,649.00 325.00,649.00
             305.76,629.76 276.09,605.90 277.04,576.00
             277.89,549.34 298.55,531.45 316.00,514.00
             316.00,514.00 416.00,414.00 416.00,414.00
             416.00,414.00 454.00,376.01 454.00,376.01
             454.00,376.01 472.00,359.00 472.00,359.00
             486.84,344.16 500.96,326.65 522.00,320.75
             529.13,318.74 533.74,318.92 541.00,319.00
             548.94,319.10 556.07,321.17 563.00,325.04
             569.25,328.52 571.99,330.90 576.99,336.00
             600.69,360.22 595.02,395.91 573.00,419.00
             573.00,419.00 1221.00,419.00 1221.00,419.00
             1221.00,419.00 1371.00,419.00 1371.00,419.00
             1400.51,419.05 1416.96,440.86 1417.00,469.00
             1417.00,469.00 1417.00,641.00 1417.00,641.00
             1416.98,655.10 1413.82,671.80 1406.55,684.00
             1398.51,697.48 1392.12,700.54 1381.00,710.29
             1381.00,710.29 1354.00,735.17 1354.00,735.17
             1354.00,735.17 1266.00,816.91 1266.00,816.91
             1266.00,816.91 1217.00,861.17 1217.00,861.17
             1217.00,861.17 1188.00,888.72 1188.00,888.72
             1188.00,888.72 1131.00,940.42 1131.00,940.42
             1131.00,940.42 1116.09,954.17 1116.09,954.17
             1114.31,955.93 1111.25,959.40 1111.01,961.98
             1110.43,968.30 1126.42,968.82 1131.00,969.59
             1160.48,974.53 1170.96,976.60 1200.00,984.86
             1260.83,1002.17 1322.49,1034.44 1371.00,1074.92
             1393.60,1093.78 1412.47,1112.08 1429.85,1136.00
             1481.06,1206.50 1493.99,1295.03 1493.00,1380.00
             1493.00,1380.00 1492.00,1398.00 1492.00,1398.00
             1492.00,1398.00 1491.09,1408.00 1491.09,1408.00
             1489.38,1431.38 1485.00,1458.45 1478.57,1481.00
             1471.75,1504.94 1462.56,1528.10 1450.69,1550.00
             1440.35,1569.07 1427.53,1587.09 1414.00,1604.00
             1368.97,1660.29 1312.24,1701.35 1247.00,1731.31
             1224.25,1741.75 1200.93,1751.54 1177.00,1758.98
             1141.64,1769.97 1105.52,1778.03 1069.00,1784.08
             1037.63,1789.27 1005.74,1793.65 974.00,1795.04
             974.00,1795.04 963.00,1796.04 963.00,1796.04
             963.00,1796.04 952.00,1796.04 952.00,1796.04
             952.00,1796.04 940.00,1797.00 940.00,1797.00
             940.00,1797.00 886.00,1797.00 886.00,1797.00
             886.00,1797.00 876.00,1796.04 876.00,1796.04
             876.00,1796.04 865.00,1796.04 865.00,1796.04
             865.00,1796.04 854.00,1795.04 854.00,1795.04
             854.00,1795.04 780.00,1788.15 780.00,1788.15
             700.01,1778.59 613.87,1753.72 543.00,1715.31
             510.66,1697.78 481.00,1678.06 454.00,1652.91
             435.21,1635.41 418.98,1614.99 404.28,1594.00
             375.48,1552.86 351.50,1507.01 343.08,1457.00
             343.08,1457.00 339.91,1429.00 339.91,1429.00
             339.91,1429.00 339.00,1419.00 339.00,1419.00
             338.86,1406.08 342.31,1393.36 353.04,1385.16
             356.35,1382.63 361.10,1379.96 365.00,1378.47
             370.37,1376.40 375.33,1376.01 381.00,1376.00
             381.00,1376.00 654.00,1376.00 654.00,1376.00
             678.73,1376.04 697.31,1389.40 710.29,1410.00
             710.29,1410.00 725.44,1438.00 725.44,1438.00
             738.27,1456.31 754.69,1469.66 774.00,1480.58
             795.77,1492.88 827.25,1500.70 852.00,1504.27
             868.33,1506.62 884.50,1507.97 901.00,1508.00
             901.00,1508.00 916.00,1508.91 916.00,1508.91
             916.00,1508.91 927.00,1508.00 927.00,1508.00
             959.40,1507.85 995.48,1499.62 1025.00,1486.30
             1049.18,1475.40 1071.05,1462.35 1087.50,1441.00
             1105.00,1418.29 1115.96,1383.68 1116.00,1355.00
             1116.00,1355.00 1116.00,1330.00 1116.00,1330.00
             1115.86,1318.67 1112.06,1300.75 1108.31,1290.00
             1105.15,1280.96 1099.13,1268.76 1093.57,1261.00
             1066.88,1223.76 1025.42,1209.06 982.00,1201.92
             971.31,1200.16 952.62,1198.02 942.00,1198.00
             942.00,1198.00 892.00,1198.00 892.00,1198.00
             892.00,1198.00 848.00,1198.00 848.00,1198.00
             848.00,1198.00 785.00,1198.00 785.00,1198.00
             785.00,1198.00 727.00,1198.00 727.00,1198.00
             715.90,1198.00 700.54,1198.54 690.00,1195.57
             668.88,1189.62 654.03,1171.00 654.00,1149.00
             654.00,1149.00 654.00,1026.00 654.00,1026.00
             654.03,1006.69 662.71,987.80 676.09,974.04
             676.09,974.04 714.00,942.58 714.00,942.58
             714.00,942.58 886.00,801.75 886.00,801.75
             886.00,801.75 951.00,748.42 951.00,748.42
             951.00,748.42 971.00,732.08 971.00,732.08
             973.70,729.83 978.55,726.01 980.28,723.00
             981.29,720.92 981.30,719.17 980.28,717.00
             977.27,709.58 969.90,709.01 963.00,709.00
             963.00,709.00 549.00,709.00 549.00,709.00 Z
           M 3077.00,419.00
           C 3065.97,406.25 3058.03,393.33 3058.00,376.00
             3058.00,376.00 3058.00,369.00 3058.00,369.00
             3058.31,343.14 3083.41,319.30 3109.00,319.00
             3109.00,319.00 3117.00,319.00 3117.00,319.00
             3142.89,319.31 3161.23,341.23 3178.00,358.00
             3178.00,358.00 3234.00,414.00 3234.00,414.00
             3234.00,414.00 3336.00,516.00 3336.00,516.00
             3353.94,533.94 3373.62,550.17 3372.99,578.00
             3372.49,599.91 3358.48,614.52 3344.00,629.00
             3344.00,629.00 3324.00,649.00 3324.00,649.00
             3324.00,649.00 3188.00,785.00 3188.00,785.00
             3188.00,785.00 3168.00,805.00 3168.00,805.00
             3152.62,820.38 3138.95,833.34 3116.00,834.91
             3087.03,836.89 3058.35,812.47 3058.00,783.00
             3057.75,761.44 3062.47,751.67 3076.00,735.00
             3076.00,735.00 2939.00,735.00 2939.00,735.00
             2939.00,735.00 2933.61,769.00 2933.61,769.00
             2933.61,769.00 2926.41,811.00 2926.41,811.00
             2926.41,811.00 2899.25,969.00 2899.25,969.00
             2899.25,969.00 2850.75,1252.00 2850.75,1252.00
             2850.75,1252.00 2814.59,1462.00 2814.59,1462.00
             2814.59,1462.00 2785.41,1632.00 2785.41,1632.00
             2785.41,1632.00 2780.75,1659.00 2780.75,1659.00
             2780.75,1659.00 2777.74,1675.00 2777.74,1675.00
             2775.71,1680.40 2771.60,1682.44 2766.00,1681.89
             2758.76,1681.18 2757.30,1674.70 2754.85,1669.00
             2754.85,1669.00 2738.72,1631.00 2738.72,1631.00
             2738.72,1631.00 2668.72,1466.00 2668.72,1466.00
             2668.72,1466.00 2565.72,1223.00 2565.72,1223.00
             2565.72,1223.00 2540.72,1164.00 2540.72,1164.00
             2529.94,1138.96 2520.68,1120.14 2521.00,1092.00
             2521.13,1081.39 2525.54,1058.29 2527.58,1047.00
             2527.58,1047.00 2538.75,983.00 2538.75,983.00
             2538.75,983.00 2569.25,808.00 2569.25,808.00
             2569.25,808.00 2582.00,735.00 2582.00,735.00
             2582.00,735.00 2384.00,735.00 2384.00,735.00
             2384.00,735.00 2284.00,735.00 2284.00,735.00
             2254.85,734.66 2239.04,711.24 2239.00,684.00
             2239.00,684.00 2239.00,611.00 2239.00,611.00
             2239.00,588.91 2238.60,567.80 2243.21,546.00
             2248.32,521.84 2258.55,499.01 2273.01,479.00
             2279.43,470.12 2286.67,461.71 2295.00,454.58
             2306.98,444.32 2314.81,438.73 2329.00,431.76
             2343.73,424.51 2363.53,419.03 2380.00,419.00
             2380.00,419.00 3077.00,419.00 3077.00,419.00 Z
           M 1510.00,419.11
           C 1510.00,419.11 1542.00,419.11 1542.00,419.11
             1542.00,419.11 1601.00,419.11 1601.00,419.11
             1601.00,419.11 1779.00,419.11 1779.00,419.11
             1794.84,419.02 1814.88,424.13 1825.10,437.04
             1834.09,448.39 1835.24,463.18 1837.27,477.00
             1837.27,477.00 1846.92,537.00 1846.92,537.00
             1846.92,537.00 1909.92,929.00 1909.92,929.00
             1909.92,929.00 1929.42,1051.00 1929.42,1051.00
             1929.42,1051.00 1937.87,1103.00 1937.87,1103.00
             1937.87,1103.00 1944.59,1145.00 1944.59,1145.00
             1945.60,1151.02 1945.94,1158.34 1952.04,1161.55
             1962.06,1166.81 1966.32,1155.87 1969.75,1149.00
             1969.75,1149.00 1985.22,1120.00 1985.22,1120.00
             1985.22,1120.00 2000.42,1091.00 2000.42,1091.00
             2000.42,1091.00 2035.31,1025.00 2035.31,1025.00
             2035.31,1025.00 2083.74,934.00 2083.74,934.00
             2083.74,934.00 2094.44,910.00 2094.44,910.00
             2105.35,890.39 2122.81,876.27 2146.00,876.00
             2146.00,876.00 2301.00,876.00 2301.00,876.00
             2324.81,876.04 2341.60,887.91 2353.55,908.00
             2353.55,908.00 2367.31,939.00 2367.31,939.00
             2367.31,939.00 2381.69,969.00 2381.69,969.00
             2381.69,969.00 2405.24,1019.00 2405.24,1019.00
             2405.24,1019.00 2434.31,1081.00 2434.31,1081.00
             2434.31,1081.00 2464.69,1145.00 2464.69,1145.00
             2464.69,1145.00 2503.86,1233.00 2503.86,1233.00
             2503.86,1233.00 2564.14,1368.00 2564.14,1368.00
             2564.14,1368.00 2621.69,1497.00 2621.69,1497.00
             2621.69,1497.00 2694.30,1660.00 2694.30,1660.00
             2694.30,1660.00 2714.30,1705.00 2714.30,1705.00
             2719.97,1717.56 2725.16,1725.84 2725.00,1740.00
             2724.71,1765.00 2705.19,1777.96 2682.00,1778.00
             2682.00,1778.00 2490.00,1778.00 2490.00,1778.00
             2479.87,1777.88 2464.14,1775.96 2455.00,1771.68
             2449.30,1769.01 2446.67,1766.42 2442.00,1762.42
             2424.45,1747.40 2425.74,1743.69 2416.74,1725.00
             2416.74,1725.00 2401.14,1692.00 2401.14,1692.00
             2401.14,1692.00 2382.26,1653.00 2382.26,1653.00
             2382.26,1653.00 2350.26,1586.00 2350.26,1586.00
             2350.26,1586.00 2285.25,1450.00 2285.25,1450.00
             2285.25,1450.00 2243.25,1362.00 2243.25,1362.00
             2243.25,1362.00 2238.86,1353.00 2238.86,1353.00
             2236.27,1347.18 2232.48,1335.67 2224.00,1337.47
             2216.49,1339.07 2210.62,1356.25 2207.25,1363.00
             2207.25,1363.00 2190.22,1399.00 2190.22,1399.00
             2190.22,1399.00 2168.69,1444.00 2168.69,1444.00
             2168.69,1444.00 2138.78,1506.00 2138.78,1506.00
             2138.78,1506.00 2079.74,1630.00 2079.74,1630.00
             2079.74,1630.00 2058.22,1675.00 2058.22,1675.00
             2058.22,1675.00 2049.86,1692.00 2049.86,1692.00
             2049.86,1692.00 2039.31,1714.00 2039.31,1714.00
             2035.19,1722.97 2029.36,1737.35 2023.96,1745.00
             2020.49,1749.91 2013.61,1756.54 2009.09,1760.70
             2004.18,1765.22 2000.15,1768.80 1994.00,1771.68
             1984.86,1775.96 1969.13,1777.88 1959.00,1778.00
             1959.00,1778.00 1768.00,1778.00 1768.00,1778.00
             1760.98,1777.99 1745.67,1776.60 1739.00,1774.84
             1732.00,1773.00 1725.22,1770.26 1719.00,1766.55
             1686.56,1747.20 1685.16,1706.25 1679.59,1673.00
             1679.59,1673.00 1661.59,1565.00 1661.59,1565.00
             1661.59,1565.00 1543.08,852.00 1543.08,852.00
             1543.08,852.00 1488.59,524.00 1488.59,524.00
             1488.59,524.00 1485.41,505.00 1485.41,505.00
             1481.16,479.62 1469.64,439.23 1498.00,423.51
             1502.14,421.22 1505.42,420.32 1510.00,419.11 Z
           M 4846.00,2540.00" />
</svg>
